# xmcd
#
# Track frame offsets:
#	150
#	15403
#	27428
#	40876
#	52723
#	67213
#	81645
#	96971
#	111180
#	122506
#	132942
#	143977
#	157132
#	167854
#	179534
#	193012
#	207085
#	220051
#	233777
#	249075
#	261067
#	272517
#	283336
#	295390
#	310673
#
# Disc length: 4325 seconds
#
# Revision: 0
# Processed by: cddbd v1.5.2PL0 Copyright (c) Steve Scherf et al.
# Submitted via: audiograbber 1.83.01
#
DISCID=7610e319
DTITLE=Various Artist - The War Years CD3
DYEAR=1900
DGENRE=Oldies
TTITLE0=Vera Lynn - Farewell To Arms
TTITLE1=George Formby - I Did What I Could With My Gas Mask On
TTITLE2=Arthur Askey - Kiss Me Goodnight
TTITLE3=Ella Fitzgerald - It's Only A Paper Moon
TTITLE4=Frank Sinatra - Nancy With The Laughing Face
TTITLE5=Glenn Miller - Don't Sit Under The Apple Tree
TTITLE6=Billie Holiday - Lover Come Back To Me
TTITLE7=Doris Day - A Red Kiss On A Blue Letter
TTITLE8=Mel Tormé - You're A Heavenly Thing
TTITLE9=Frank Sinatra - Without A Song
TTITLE10=Count Basie - Louisiana
TTITLE11=Anita O'Day - Travellin' Man
TTITLE12=Judy Garland - I Never Knew
TTITLE13=Dixie Ramblers - He's An Army Man
TTITLE14=Benny Goodman - Jersey Bounce
TTITLE15=Bill Coleman - Linger Awhile
TTITLE16=Sidney Bechet - Ain't Misbehavin'
TTITLE17=Peggy Lee - Ain't Goin' No Place
TTITLE18=Nat King Cole - Don't Blame Me
TTITLE19=Lester Young - Jive At Five
TTITLE20=Charlie Parker - Flat Floot Boogie
TTITLE21=Bing Crosby with Bob Hope - Put It There Pal
TTITLE22=Duke Ellington - C Jam Blues
TTITLE23=Billy Cotton - My Heart Belongs To Daddy
TTITLE24=Gracie Fields - Smile When You Say Goodbye
EXTD=(p)2009 Weton-Wesgram BV
EXTT0=
EXTT1=
EXTT2=
EXTT3=
EXTT4=
EXTT5=
EXTT6=
EXTT7=
EXTT8=
EXTT9=
EXTT10=
EXTT11=
EXTT12=
EXTT13=
EXTT14=
EXTT15=
EXTT16=
EXTT17=
EXTT18=
EXTT19=
EXTT20=
EXTT21=
EXTT22=
EXTT23=
EXTT24=
PLAYORDER=
